<?xml version="1.0" encoding="utf-8"?>
<!-- Generator: Adobe Illustrator 17.0.0, SVG Export Plug-In . SVG Version: 6.00 Build 0)  -->
<!DOCTYPE svg PUBLIC "-//W3C//DTD SVG 1.1//EN" "http://www.w3.org/Graphics/SVG/1.1/DTD/svg11.dtd">
<svg version="1.1" xmlns="http://www.w3.org/2000/svg" xmlns:xlink="http://www.w3.org/1999/xlink" x="0px" y="0px" width="68px"
	 height="68px" viewBox="0 0 68 68" enable-background="new 0 0 68 68" xml:space="preserve">
<g id="_x35_3">
	<path fill-rule="evenodd" clip-rule="evenodd" fill="#67CDFD" d="M8.311,27.312V37.54h6.691V20.522
		C11.37,20.522,8.311,23.585,8.311,27.312L8.311,27.312z"/>
	<path fill-rule="evenodd" clip-rule="evenodd" fill="#67CDFD" d="M8.311,40.787v10.129c0,3.729,3.059,6.691,6.691,6.691v-16.82
		H8.311z"/>
	<path fill-rule="evenodd" clip-rule="evenodd" fill="#67CDFD" d="M55.434,20.522V37.54h6.786V27.312
		C62.22,23.585,59.066,20.522,55.434,20.522L55.434,20.522z"/>
	<path fill-rule="evenodd" clip-rule="evenodd" fill="#67CDFD" d="M55.434,40.787v16.82c3.632,0,6.786-2.963,6.786-6.691V40.787
		H55.434z"/>
	<path fill-rule="evenodd" clip-rule="evenodd" d="M45.396,13.83c0-1.817-1.623-3.438-3.44-3.438H28.48
		c-1.817,0-3.345,1.62-3.345,3.438v6.691h-6.788V37.54h33.74V20.522h-6.691V13.83z"/>
	<rect x="18.347" y="40.787" fill-rule="evenodd" clip-rule="evenodd" fill="#67CDFD" width="33.74" height="16.82"/>
	<rect x="28.48" y="13.83" fill-rule="evenodd" clip-rule="evenodd" fill="#FEFEFE" width="13.476" height="6.692"/>
	<g>
		<g>
			<path fill-rule="evenodd" clip-rule="evenodd" fill="#727270" d="M117.997,111.415h2.294v-0.954c0-1.054,0.861-1.916,2.007-1.916
				h3.25c1.148,0,2.103,0.862,2.103,1.916v0.954h2.103h2.2v2.102v6.79v2.101h-2.2h-11.756h-2.007v-2.101v-6.79v-2.102H117.997z
				 M128.894,82.45c0,1.528,0.764,2.872,2.007,3.636l-1.243,0.765c-2.007,0-3.728,1.527-4.014,3.535l-0.096,5.737h15.197v-5.737
				c-0.286-2.008-2.005-3.535-4.014-3.535l-1.337-0.765c1.241-0.764,2.103-2.107,2.103-3.636c0-2.391-1.912-4.3-4.302-4.3
				C130.805,78.15,128.894,80.059,128.894,82.45L128.894,82.45z M103.85,78.821c0,1.811,1.05,3.347,2.58,4.012
				c-0.382,0.289-0.764,0.572-1.146,1.054c-2.007,0-4.207,1.527-4.493,3.438l-1.242,8.891c-0.288,1.719,0.859,3.346,2.58,3.729
				c-0.382,6.118,0.764,13.955,0.764,20.937c0,1.238,1.052,2.292,2.391,2.292c1.243,0,2.293-1.054,2.293-2.292l0.669-15.392
				l0.479,15.392c0,1.238,1.05,2.292,2.293,2.292c1.338,0,2.389-1.054,2.389-2.292c0-5.071,1.244-14.72,0.861-18.638h30.685v-4.69
				h-28.009l-1.339-10.129c-0.191-2.009-2.389-3.536-4.396-3.536c-0.477-0.481-0.859-0.863-1.243-1.146
				c1.529-0.672,2.486-2.2,2.486-3.919c0-2.391-1.911-4.301-4.302-4.301C105.762,74.52,103.85,76.43,103.85,78.821L103.85,78.821z
				 M121.725,111.415h4.492v-0.954c0-0.29-0.287-0.573-0.669-0.573h-3.25c-0.382,0-0.573,0.283-0.573,0.573V111.415z"/>
		</g>
		<path fill-rule="evenodd" clip-rule="evenodd" fill="#67CDFD" d="M128.894,82.45c0,1.528,0.764,2.872,2.007,3.636l-1.243,0.765
			c-2.007,0-3.728,1.527-4.014,3.535l-0.096,5.737h15.197v-5.737c-0.286-2.008-2.005-3.535-4.014-3.535l-1.337-0.765
			c1.241-0.764,2.103-2.107,2.103-3.636c0-2.391-1.912-4.3-4.302-4.3C130.805,78.15,128.894,80.059,128.894,82.45L128.894,82.45z"/>
	</g>
</g>
<g id="Layer_1">
</g>
</svg>
