<?xml version="1.0" encoding="utf-8"?>
<!-- Generator: Adobe Illustrator 17.0.0, SVG Export Plug-In . SVG Version: 6.00 Build 0)  -->
<!DOCTYPE svg PUBLIC "-//W3C//DTD SVG 1.1//EN" "http://www.w3.org/Graphics/SVG/1.1/DTD/svg11.dtd">
<svg version="1.1" xmlns="http://www.w3.org/2000/svg" xmlns:xlink="http://www.w3.org/1999/xlink" x="0px" y="0px" width="68px"
	 height="68px" viewBox="0 0 68 68" enable-background="new 0 0 68 68" xml:space="preserve">
<g id="_x35_3">
	<path fill-rule="evenodd" clip-rule="evenodd" fill="#67CDFD" d="M133.146,50.919v10.229h6.691V44.129
		C136.205,44.129,133.146,47.192,133.146,50.919L133.146,50.919z"/>
	<path fill-rule="evenodd" clip-rule="evenodd" fill="#67CDFD" d="M133.146,64.395v10.129c0,3.728,3.059,6.691,6.691,6.691v-16.82
		H133.146z"/>
	<path fill-rule="evenodd" clip-rule="evenodd" fill="#67CDFD" d="M180.269,44.129v17.019h6.786V50.919
		C187.055,47.192,183.901,44.129,180.269,44.129L180.269,44.129z"/>
	<path fill-rule="evenodd" clip-rule="evenodd" fill="#67CDFD" d="M180.269,64.395v16.82c3.632,0,6.786-2.963,6.786-6.691V64.395
		H180.269z"/>
	<path fill-rule="evenodd" clip-rule="evenodd" d="M170.231,37.438c0-1.817-1.623-3.438-3.441-3.438h-13.475
		c-1.817,0-3.345,1.62-3.345,3.438v6.691h-6.788v17.019h33.74V44.129h-6.691V37.438z"/>
	<rect x="143.182" y="64.395" fill-rule="evenodd" clip-rule="evenodd" fill="#67CDFD" width="33.74" height="16.82"/>
	<rect x="153.315" y="37.438" fill-rule="evenodd" clip-rule="evenodd" fill="#FEFEFE" width="13.476" height="6.692"/>
	<g>
		<path fill-rule="evenodd" clip-rule="evenodd" d="M31.33,46.569h2.293v-0.954c0-1.054,0.861-1.916,2.007-1.916h3.25
			c1.148,0,2.103,0.862,2.103,1.916v0.954h2.103h2.2v2.102v6.79v2.101h-2.2H31.33h-2.007V55.46v-6.79v-2.102H31.33z M42.227,17.604
			c0,1.528,0.764,2.872,2.007,3.636l-1.243,0.765c-2.007,0-3.728,1.527-4.014,3.535l-0.096,5.737h15.197V25.54
			c-0.286-2.008-2.005-3.535-4.014-3.535l-1.337-0.765c1.241-0.764,2.103-2.107,2.103-3.636c0-2.391-1.912-4.3-4.302-4.3
			C44.139,13.304,42.227,15.213,42.227,17.604L42.227,17.604z M17.184,13.975c0,1.811,1.05,3.347,2.58,4.012
			c-0.382,0.289-0.764,0.572-1.146,1.054c-2.007,0-4.207,1.527-4.493,3.438l-1.242,8.891c-0.288,1.719,0.859,3.346,2.58,3.729
			c-0.382,6.118,0.764,13.955,0.764,20.937c0,1.238,1.052,2.292,2.391,2.292c1.243,0,2.293-1.054,2.293-2.292l0.669-15.392
			l0.479,15.392c0,1.238,1.05,2.292,2.293,2.292c1.338,0,2.389-1.054,2.389-2.292c0-5.071,1.244-14.72,0.861-18.638h30.685v-4.691
			H30.278l-1.339-10.129c-0.191-2.009-2.389-3.536-4.397-3.536c-0.477-0.481-0.859-0.863-1.243-1.146
			c1.529-0.672,2.486-2.2,2.486-3.919c0-2.391-1.911-4.301-4.302-4.301C19.095,9.674,17.184,11.585,17.184,13.975L17.184,13.975z
			 M35.058,46.569h4.492v-0.954c0-0.29-0.287-0.573-0.669-0.573h-3.25c-0.382,0-0.573,0.283-0.573,0.573V46.569z"/>
	</g>
	<path fill-rule="evenodd" clip-rule="evenodd" fill="#67CDFD" d="M42.227,17.604c0,1.528,0.764,2.872,2.007,3.636l-1.243,0.765
		c-2.007,0-3.728,1.527-4.014,3.535l-0.096,5.737h15.197V25.54c-0.286-2.008-2.005-3.535-4.014-3.535l-1.337-0.765
		c1.241-0.764,2.103-2.107,2.103-3.636c0-2.391-1.912-4.3-4.302-4.3C44.139,13.304,42.227,15.213,42.227,17.604L42.227,17.604z"/>
</g>
<g id="Layer_1">
</g>
</svg>
